<svg version="1.1" baseProfile="full" width="155" xmlns="http://www.w3.org/2000/svg" viewBox="-266.23999710083007 -1801.2800323486329 7101.10878025953 3034.752081298828"><desc>Created with Snap</desc><defs></defs><g><g transform="matrix(31.2404,0,0,31.2404,3756.6424,-1850.221)"><g><path d="M25.1,41.7c1.9-1.9,4.1-3.6,6.3-4.9c1.6-1,3.3-1.9,4.9-2.6l3.5-3.5c0.5-0.5,0.5-1.4,0-1.9c-0.5-0.5-1.4-0.5-1.9,0l-8.6,8.6   l-2-2l8.6-8.6c0.5-0.5,0.5-1.4,0-1.9c-0.5-0.5-1.4-0.5-1.9,0l-8.6,8.6l-2-2l8.6-8.6c0.5-0.5,0.5-1.4,0-1.9s-1.4-0.5-1.9,0l-8.6,8.6   l-2-2l8.6-8.6c0.5-0.5,0.5-1.4,0-1.9s-1.4-0.5-1.9,0l-8.6,8.6c-0.9-0.9-0.9-2.4,0-3.4L24,16c1.3-1.3,1.3-3.3,0-4.6L12.4,22.9   c-1.7,1.7-1.7,4.4,0,6L25.1,41.7z" style="" fill="#840707"></path></g><g><path d="M84,76l-6.4,6.4c-0.9,0.9-2.5,0.9-3.4,0L74,82.2l8.6-8.6c0.5-0.5,0.5-1.4,0-1.9s-1.4-0.5-1.9,0l-8.6,8.6l-2-2l8.6-8.6   c0.5-0.5,0.5-1.4,0-1.9s-1.4-0.5-1.9,0l-8.6,8.6l-2-2l8.6-8.6c0.5-0.5,0.5-1.4,0-1.9c-0.5-0.5-1.4-0.5-1.9,0l-8.6,8.6l-2-2l8.6-8.6   c0.5-0.5,0.5-1.4,0-1.9s-1.4-0.5-1.9,0l-8.6,8.6l-2-2L67,58c0.5-0.5,0.5-1.4,0-1.9c-0.1-0.1-0.2-0.2-0.3-0.2   c-1.1,0.7-2.2,1.3-3.3,2l-6.9,6.9l-2-2l1.4-1.4c-0.2,0.1-0.3,0.1-0.5,0.2c-0.6,0.3-1.2,0.5-1.8,0.8c-2.1,0.9-3.8,1.7-5.4,2.4   l22.8,22.8c1.7,1.7,4.4,1.7,6,0L88.7,76C87.4,74.7,85.3,74.7,84,76z" style="" fill="#840707"></path></g><g><path d="M72.6,11.9c0,0-0.1,0.3-0.3,0.9c-0.2,0.6-0.5,1.5-0.9,2.6c-0.4,1.1-1,2.4-1.7,3.9c-0.4,0.7-0.8,1.5-1.2,2.3   c-0.5,0.8-1,1.6-1.6,2.5c-0.5,0.9-1.2,1.7-1.9,2.6c-0.7,0.9-1.5,1.7-2.3,2.6c-1.7,1.7-3.6,3.4-5.7,5c-2.2,1.5-4.5,2.9-7,4   c-2.4,1.2-4.9,2.2-7.3,3.2c-2.4,1-4.6,2-6.7,3.1c-2.1,1.1-3.9,2.4-5.7,3.8c-0.9,0.7-1.6,1.5-2.4,2.2c-0.7,0.8-1.5,1.5-2.2,2.4   c-0.7,0.8-1.3,1.6-1.9,2.4c-0.3,0.4-0.6,0.8-0.9,1.2c-0.3,0.4-0.5,0.8-0.8,1.2c-1.1,1.6-2,3.1-2.8,4.4c-0.8,1.4-1.5,2.6-2.1,3.6   c-0.5,1-1,1.8-1.3,2.3c-0.3,0.5-0.5,0.8-0.5,0.8s0-0.3,0.1-1c0.1-0.6,0.2-1.5,0.4-2.7c0.2-1.2,0.5-2.6,0.9-4.2   c0.5-1.6,0.9-3.4,1.7-5.3c0.2-0.5,0.4-1,0.6-1.5c0.2-0.5,0.5-1,0.7-1.5c0.5-1,1-2,1.6-3.1c0.3-0.5,0.6-1,1-1.6   c0.4-0.5,0.7-1,1.1-1.6c0.8-1,1.6-2,2.6-3c1.9-1.9,4.1-3.7,6.5-5.2c2.4-1.5,4.9-2.6,7.4-3.7c2.4-1,4.8-2,7.2-2.9   c2.3-1,4.4-2,6.4-3.1c2-1.1,3.8-2.3,5.5-3.6c0.8-0.7,1.7-1.3,2.4-1.9c0.7-0.7,1.5-1.3,2.2-2c0.7-0.7,1.4-1.3,2-1.9   c0.6-0.6,1.2-1.2,1.7-1.8c1.1-1.2,2-2.2,2.8-3c0.7-0.9,1.4-1.6,1.8-2.1C72.4,12.1,72.6,11.9,72.6,11.9z" style="" fill="#840707"></path></g><g><path d="M77.5,21.5c0,0-0.1,0.3-0.3,0.9C77,23,76.7,23.9,76.3,25c-0.4,1.1-1,2.4-1.7,3.9c-0.4,0.7-0.8,1.5-1.2,2.3   c-0.5,0.8-1,1.6-1.6,2.5c-0.5,0.9-1.2,1.7-1.9,2.6c-0.7,0.9-1.5,1.7-2.3,2.6c-1.7,1.7-3.6,3.4-5.7,5c-2.2,1.5-4.5,2.9-7,4   c-2.4,1.2-4.9,2.2-7.3,3.2c-2.4,1-4.6,2-6.7,3.1c-2.1,1.1-3.9,2.4-5.7,3.8c-0.9,0.7-1.6,1.5-2.4,2.2c-0.7,0.8-1.5,1.5-2.2,2.4   c-0.7,0.8-1.3,1.6-1.9,2.4c-0.3,0.4-0.6,0.8-0.9,1.2c-0.3,0.4-0.5,0.8-0.8,1.2c-1.1,1.6-2,3.1-2.8,4.4c-0.8,1.4-1.5,2.6-2.1,3.6   c-0.5,1-1,1.8-1.3,2.3c-0.3,0.5-0.5,0.8-0.5,0.8s0-0.3,0.1-1c0.1-0.6,0.2-1.5,0.4-2.7c0.2-1.2,0.5-2.6,0.9-4.2   c0.5-1.6,0.9-3.4,1.7-5.3c0.2-0.5,0.4-1,0.6-1.5c0.2-0.5,0.5-1,0.7-1.5c0.5-1,1-2,1.6-3.1c0.3-0.5,0.6-1,1-1.6   c0.4-0.5,0.7-1,1.1-1.6c0.8-1,1.6-2,2.6-3c1.9-1.9,4.1-3.7,6.5-5.2c2.4-1.5,4.9-2.6,7.4-3.7c2.4-1,4.8-2,7.2-2.9   c2.3-1,4.4-2,6.4-3.1c2-1.1,3.8-2.3,5.5-3.6c0.8-0.7,1.7-1.3,2.4-1.9c0.7-0.7,1.5-1.3,2.2-2c0.7-0.7,1.4-1.3,2-1.9   c0.6-0.6,1.2-1.2,1.7-1.8c1.1-1.2,2-2.2,2.8-3c0.7-0.9,1.4-1.6,1.8-2.1C77.3,21.7,77.5,21.5,77.5,21.5z" style="" fill="#840707"></path></g><g><path d="M82.6,30.7c0,0-0.1,0.3-0.3,0.9c-0.2,0.6-0.5,1.5-0.9,2.6c-0.4,1.1-1,2.4-1.7,3.9c-0.4,0.7-0.8,1.5-1.2,2.3   c-0.5,0.8-1,1.6-1.6,2.5c-0.5,0.9-1.2,1.7-1.9,2.6c-0.7,0.9-1.5,1.7-2.3,2.6c-1.7,1.7-3.6,3.4-5.7,5c-2.2,1.5-4.5,2.9-7,4   c-2.4,1.2-4.9,2.2-7.3,3.2c-2.4,1-4.6,2-6.7,3.1c-2.1,1.1-3.9,2.4-5.7,3.8c-0.9,0.7-1.6,1.5-2.4,2.2c-0.7,0.8-1.5,1.5-2.2,2.4   c-0.7,0.8-1.3,1.6-1.9,2.4c-0.3,0.4-0.6,0.8-0.9,1.2c-0.3,0.4-0.5,0.8-0.8,1.2c-1.1,1.6-2,3.1-2.8,4.4c-0.8,1.4-1.5,2.6-2.1,3.6   c-0.5,1-1,1.8-1.3,2.3c-0.3,0.5-0.5,0.8-0.5,0.8s0-0.3,0.1-1c0.1-0.6,0.2-1.5,0.4-2.7c0.2-1.2,0.5-2.6,0.9-4.2   c0.5-1.6,0.9-3.4,1.7-5.3c0.2-0.5,0.4-1,0.6-1.5c0.2-0.5,0.5-1,0.7-1.5c0.5-1,1-2,1.6-3.1c0.3-0.5,0.6-1,1-1.6   c0.4-0.5,0.7-1,1.1-1.6c0.8-1,1.6-2,2.6-3c1.9-1.9,4.1-3.7,6.5-5.2c2.4-1.5,4.9-2.6,7.4-3.7c2.4-1,4.8-2,7.2-2.9   c2.3-1,4.4-2,6.4-3.1c2-1.1,3.8-2.3,5.5-3.6c0.8-0.7,1.7-1.3,2.4-1.9c0.7-0.7,1.5-1.3,2.2-2c0.7-0.7,1.4-1.3,2-1.9   c0.6-0.6,1.2-1.2,1.7-1.8c1.1-1.2,2-2.2,2.8-3c0.7-0.9,1.4-1.6,1.8-2.1C82.4,30.9,82.6,30.7,82.6,30.7z" style="" fill="#840707"></path></g><desc>Created with Snap</desc><defs></defs></g><g><g transform="matrix(0.512,0,0,-0.512,0,0)"><path d="M80 544Q80 709 140 841Q200 973 320 1050Q440 1128 620 1128Q725 1128 798 1109Q871 1090 898 1072L862 890Q820 919 761 933Q702 948 618 948Q543 948 473 911Q403 875 356 795Q309 715 304 584Q300 446 340 351Q381 257 452 208Q524 160 612 160Q695 160 765 181Q836 202 872 224L916 90Q865 42 772 13Q679 -16 574 -16Q415 -16 305 58Q195 132 137 258Q80 385 80 544ZM1386 0L1156 0L1156 1112L1386 1112L1386 0ZM1258 1309Q1200 1309 1156 1346Q1113 1383 1113 1447Q1113 1491 1137 1526Q1162 1562 1200 1583Q1238 1605 1279 1605Q1350 1605 1386 1565Q1422 1525 1422 1467Q1422 1398 1372 1353Q1323 1309 1258 1309ZM2048 -16Q1969 -16 1909 9Q1849 34 1815 97Q1782 161 1782 278L1782 944L1638 944L1638 1068Q1712 1089 1751 1103Q1790 1118 1808 1166Q1816 1188 1826 1218Q1836 1249 1848 1286Q1860 1324 1874 1368L2012 1368L2012 1114L2324 1114L2324 944L2012 944L2012 400Q2012 292 2021 242Q2031 193 2057 179Q2084 166 2136 166Q2164 166 2200 172Q2237 179 2270 189Q2304 199 2322 210L2360 78Q2330 55 2279 33Q2229 12 2168 -2Q2108 -16 2048 -16ZM2550 -480L2550 -292Q2567 -298 2599 -302Q2632 -306 2648 -306Q2690 -306 2748 -283Q2806 -259 2859 -188Q2913 -116 2942 28L2956 0L2860 0L2462 1114L2710 1114L2942 392L3036 80L2976 80L3058 392L3256 1114L3504 1114L3134 -34Q3068 -235 2977 -342Q2886 -448 2778 -478Q2757 -485 2723 -491Q2689 -496 2666 -496Q2651 -496 2626 -494Q2601 -491 2578 -488Q2556 -484 2550 -480ZM3594 544Q3594 709 3654 841Q3714 973 3834 1050Q3954 1128 4134 1128Q4239 1128 4312 1109Q4385 1090 4412 1072L4376 890Q4334 919 4275 933Q4216 948 4132 948Q4057 948 3987 911Q3917 875 3870 795Q3823 715 3818 584Q3814 446 3854 351Q3895 257 3966 208Q4038 160 4126 160Q4209 160 4279 181Q4350 202 4386 224L4430 90Q4379 42 4286 13Q4193 -16 4088 -16Q3929 -16 3819 58Q3709 132 3651 258Q3594 385 3594 544ZM4974 -16Q4865 -16 4798 18Q4731 52 4696 115Q4661 179 4648 267Q4636 355 4636 462L4636 1114L4866 1114L4866 464Q4866 332 4886 270Q4907 208 4950 190Q4994 172 5064 172Q5105 172 5151 184Q5198 197 5239 214Q5280 232 5304 248L5304 1114L5534 1114L5534 -16L5428 -16Q5382 -16 5355 -3Q5328 11 5328 66L5328 144L5332 100Q5287 70 5226 43Q5166 17 5100 0Q5034 -16 4974 -16ZM6188 -16Q6109 -16 6049 9Q5989 34 5955 97Q5922 161 5922 278L5922 944L5778 944L5778 1068Q5852 1089 5891 1103Q5930 1118 5948 1166Q5956 1188 5966 1218Q5976 1249 5988 1286Q6000 1324 6014 1368L6152 1368L6152 1114L6464 1114L6464 944L6152 944L6152 400Q6152 292 6161 242Q6171 193 6197 179Q6224 166 6276 166Q6304 166 6340 172Q6377 179 6410 189Q6444 199 6462 210L6500 78Q6470 55 6419 33Q6369 12 6308 -2Q6248 -16 6188 -16ZM6656 66L6688 236Q6703 225 6750 206Q6798 188 6864 172Q6931 157 7002 156Q7098 155 7148 189Q7198 223 7198 284Q7198 327 7168 359Q7138 391 7085 418Q7033 446 6966 476Q6876 517 6807 565Q6738 613 6699 678Q6661 743 6662 834Q6664 933 6719 998Q6775 1064 6867 1096Q6959 1128 7072 1128Q7177 1128 7256 1106Q7335 1085 7360 1070L7326 896Q7308 911 7270 925Q7233 940 7184 949Q7135 958 7084 958Q6982 958 6930 928Q6878 899 6876 846Q6875 773 6926 737Q6978 701 7050 666Q7153 616 7236 567Q7319 519 7367 456Q7416 394 7416 302Q7416 146 7309 65Q7202 -16 7016 -16Q6939 -16 6866 -4Q6794 8 6738 27Q6683 46 6656 66Z" style="" fill="#500202"></path></g></g></g></svg>